<svg width="3" height="2" viewBox="0 0 3 2" fill="none" xmlns="http://www.w3.org/2000/svg">
<path d="M1.41181 0.0396576C1.18008 0.0396576 0.957855 0.133186 0.794003 0.299669C0.630151 0.466152 0.538086 0.691952 0.538086 0.927394C0.538086 1.16284 0.630151 1.38864 0.794003 1.55512C0.957855 1.7216 1.18008 1.81513 1.41181 1.81513C1.52654 1.81513 1.64015 1.79217 1.74616 1.74756C1.85216 1.70294 1.94848 1.63755 2.02961 1.55512C2.11074 1.47268 2.17509 1.37482 2.219 1.26712C2.26291 1.15941 2.28551 1.04397 2.28551 0.927394C2.28551 0.810815 2.26291 0.695377 2.219 0.587672C2.17509 0.479967 2.11074 0.382103 2.02961 0.299669C1.94848 0.217235 1.85216 0.151844 1.74616 0.107231C1.64015 0.0626185 1.52654 0.0396576 1.41181 0.0396576ZM1.41181 1.63671C1.27361 1.637 1.13845 1.5956 1.02342 1.51777C0.9084 1.43995 0.818695 1.32918 0.765679 1.19951C0.712663 1.06984 0.69871 0.927103 0.7256 0.789374C0.752491 0.651644 0.819016 0.525123 0.916734 0.425836C1.01445 0.326549 1.13897 0.258964 1.27453 0.231642C1.41008 0.204319 1.55056 0.218489 1.67818 0.272356C1.8058 0.326223 1.91481 0.417364 1.99141 0.534234C2.06801 0.651104 2.10875 0.788443 2.10847 0.928856C2.10863 1.02186 2.09072 1.11398 2.05577 1.19994C2.02082 1.2859 1.96951 1.364 1.90479 1.42976C1.84006 1.49553 1.7632 1.54766 1.6786 1.58317C1.594 1.61869 1.50334 1.63688 1.41181 1.63671ZM1.8062 0.747506C1.80683 0.702283 1.79798 0.65744 1.78026 0.615949C1.76254 0.574459 1.73635 0.53727 1.70341 0.506847C1.67047 0.476423 1.63155 0.45346 1.58922 0.43948C1.54688 0.4255 1.50211 0.420823 1.45786 0.425757H1.08938V1.39686H1.26787V1.07511H1.42908L1.59029 1.39686H1.78316L1.60756 1.04586C1.66548 1.02091 1.71506 0.979467 1.7503 0.926526C1.78555 0.873585 1.80496 0.811411 1.8062 0.747506ZM1.47225 0.902531H1.26787V0.592482H1.46362C1.50383 0.591744 1.5427 0.607157 1.57179 0.635371C1.60087 0.663585 1.61783 0.702321 1.61896 0.743164C1.6201 0.784006 1.60532 0.823655 1.57785 0.853495C1.55038 0.883336 1.51243 0.900957 1.47225 0.902531Z" fill="#52BEDC"/>
</svg>
