<svg width="132" height="132" viewBox="0 0 132 132" fill="none" xmlns="http://www.w3.org/2000/svg">
<path d="M65.1797 11.001L66 11.3701L66.8203 11.001L85.5547 2.57324L95.998 21.0967L96.4268 21.8574L97.2773 22.0596L117.256 26.8135L115.368 48.2881L115.295 49.1104L115.824 49.7441L129.395 66L115.824 82.2559L115.295 82.8896L115.368 83.7119L117.256 105.186L97.2773 109.94L96.4287 110.142L95.999 110.901L85.5566 129.364L66.8203 120.937L65.9971 120.565L65.1748 120.938L46.4395 129.423L36.001 110.964L35.5713 110.205L34.7227 110.003L14.7432 105.248L16.6328 83.7119L16.7041 82.8896L16.1758 82.2559L2.60254 65.9971L16.1777 49.6787L16.7041 49.0459L16.6328 48.2256L14.7432 26.6934L34.7178 21.998L35.5703 21.7979L36.001 21.0361L46.4424 2.57227L65.1797 11.001Z" stroke="#F8F200" stroke-width="4"/>
<path d="M54.3044 90.084L48.4707 84.2504C46.1373 81.9169 43.8038 81.9169 41.4704 84.2504L36.061 89.6598L38.3945 91.9932L43.8038 86.5838C44.5817 85.806 45.3524 85.799 46.1161 86.5626L46.1373 86.5838L42.0644 90.6568C40.1127 92.6084 40.0915 94.5388 42.0007 96.448C43.9806 98.4279 45.9464 98.442 47.898 96.4904L54.3044 90.084ZM44.3766 94.157C43.9948 93.7751 44.0018 93.3862 44.3978 92.9902L48.4707 88.9173L49.6375 90.084L45.5645 94.157C45.1686 94.5529 44.7726 94.5529 44.3766 94.157ZM66.0777 78.3107L62.7472 81.6412L55.5772 81.8109L54.4104 82.9776L57.9106 86.4778L55.5772 88.8112L46.2434 79.4774L48.5768 77.144L52.077 80.6441L53.2437 79.4774L53.4346 72.2861L56.7439 68.9769L56.6378 78.4168L66.0777 78.3107ZM64.3889 61.3318L71.3893 68.3322L67.8891 71.8324C67.1113 72.6102 66.3335 72.6102 65.5557 71.8324L59.722 65.9987L57.3886 68.3322L63.2222 74.1658C65.5557 76.4993 67.8891 76.4993 70.2226 74.1658L74.8895 69.4989L77.2229 71.8324L79.6624 69.3929L74.9955 64.726L73.7227 65.9987L66.7224 58.9984L64.3889 61.3318ZM87.305 57.0834L84.9715 59.4169L83.9745 58.4198C83.5785 60.428 82.8149 61.9978 81.6835 63.1292C79.35 65.4626 77.0166 65.4626 74.6831 63.1292L68.6374 57.0834L70.9708 54.7499L77.0166 60.7957C77.7803 61.5594 78.5581 61.5594 79.35 60.7957C80.7077 59.0421 81.1319 57.1329 80.6228 55.0681L75.6377 50.083L77.9712 47.7496L87.305 57.0834ZM82.2138 49.4466C80.2339 47.4667 80.2198 45.501 82.1714 43.5494L88.5778 37.143L97.9116 46.4768L95.5781 48.8103L92.078 45.3101L91.0385 46.3495L91.6113 52.7771L88.5778 55.8106L88.005 49.383C86.0534 51.3346 84.123 51.3558 82.2138 49.4466ZM88.5778 41.8099L84.5048 45.8828C84.1089 46.2788 84.123 46.6889 84.5473 47.1132C84.9008 47.4667 85.2756 47.4455 85.6716 47.0496L89.7445 42.9766L88.5778 41.8099Z" fill="#F8F200"/>
</svg>
