<svg width="62" height="62" viewBox="0 0 62 62" fill="none" xmlns="http://www.w3.org/2000/svg">
<path d="M45.0898 9.90918L45.291 10.2666L45.6904 10.3613L55.0752 12.5938L54.1875 22.6807L54.1543 23.0674L54.4023 23.3652L60.7764 31L54.4023 38.6348L54.1543 38.9326L54.1875 39.3193L55.0752 49.4053L45.6904 51.6387L45.292 51.7334L45.0908 52.0898L40.1846 60.7617L31.3857 56.8037L30.999 56.6289L30.6123 56.8047L21.8135 60.7891L16.9092 52.1191L16.708 51.7627L16.3096 51.668L6.92383 49.4346L7.8125 39.3193L7.8457 38.9326L7.59766 38.6348L1.22168 30.999L7.59863 23.334L7.8457 23.0371L7.8125 22.6514L6.92383 12.5371L16.3066 10.333L16.707 10.2383L16.9092 9.88086L21.8145 1.20801L30.6143 5.16699L31 5.34082L31.3857 5.16699L40.1846 1.20801L45.0898 9.90918Z" stroke="#F8F200" stroke-width="1.87879"/>
<path d="M25.2848 42.1473L22.5625 39.4249C21.4735 38.3359 20.3846 38.3359 19.2956 39.4249L16.7713 41.9493L17.8602 43.0382L20.3846 40.5138C20.7476 40.1509 21.1072 40.1476 21.4636 40.5039L21.4735 40.5138L19.5728 42.4145C18.6621 43.3253 18.6522 44.2261 19.5431 45.1171C20.4671 46.0411 21.3844 46.0477 22.2952 45.1369L25.2848 42.1473ZM20.6519 44.048C20.4737 43.8698 20.477 43.6883 20.6618 43.5035L22.5625 41.6028L23.1069 42.1473L21.2062 44.048C21.0214 44.2327 20.8367 44.2327 20.6519 44.048ZM30.7791 36.653L29.2248 38.2073L25.8788 38.2864L25.3343 38.8309L26.9677 40.4643L25.8788 41.5533L21.523 37.1975L22.612 36.1086L24.2454 37.742L24.7899 37.1975L24.879 33.8416L26.4233 32.2973L26.3738 36.7025L30.7791 36.653ZM29.991 28.7296L33.2578 31.9964L31.6244 33.6298C31.2614 33.9928 30.8984 33.9928 30.5354 33.6298L27.8131 30.9075L26.7241 31.9964L29.4465 34.7188C30.5354 35.8077 31.6244 35.8077 32.7133 34.7188L34.8912 32.5409L35.9802 33.6298L37.1186 32.4914L34.9407 30.3135L34.3467 30.9075L31.0799 27.6406L29.991 28.7296ZM40.6851 26.747L39.5962 27.8359L39.1309 27.3706C38.9461 28.3078 38.5897 29.0403 38.0618 29.5683C36.9728 30.6573 35.8839 30.6573 34.7949 29.5683L31.9736 26.747L33.0625 25.658L35.8839 28.4794C36.2402 28.8358 36.6032 28.8358 36.9728 28.4794C37.6064 27.661 37.8044 26.7701 37.5668 25.8065L35.2404 23.4801L36.3293 22.3912L40.6851 26.747ZM38.3092 23.1831C37.3853 22.2592 37.3787 21.3418 38.2894 20.4311L41.2791 17.4414L45.6349 21.7972L44.5459 22.8862L42.9125 21.2527L42.4274 21.7378L42.6947 24.7374L41.2791 26.153L41.0118 23.1534C40.101 24.0642 39.2002 24.0741 38.3092 23.1831ZM41.2791 19.6193L39.3784 21.52C39.1936 21.7048 39.2002 21.8962 39.3982 22.0942C39.5632 22.2592 39.7381 22.2493 39.9229 22.0645L41.8236 20.1638L41.2791 19.6193Z" fill="#F8F200"/>
</svg>
